<?xml version="1.0" encoding="utf-8"?>
<!-- Generator: Adobe Illustrator 16.0.0, SVG Export Plug-In . SVG Version: 6.00 Build 0)  -->
<!DOCTYPE svg PUBLIC "-//W3C//DTD SVG 1.1//EN" "http://www.w3.org/Graphics/SVG/1.1/DTD/svg11.dtd">
<svg version="1.1" id="Layer_1" xmlns="http://www.w3.org/2000/svg" xmlns:xlink="http://www.w3.org/1999/xlink" x="0px" y="0px"
	 width="60px" height="30px" viewBox="0 0 60 30" enable-background="new 0 0 60 30" xml:space="preserve">
<g>
	<g>
		<path fill-rule="evenodd" clip-rule="evenodd" fill="#E77C4C" d="M15.115,19.247c0,0.707,0.011,1.422-0.002,2.137
			c-0.015,0.813-0.34,1.127-1.133,1.035c-0.208-0.025-0.452-0.197-0.584-0.373c-0.749-1.006-1.452-2.043-2.209-3.042
			c-0.16-0.21-0.466-0.327-0.724-0.444c-0.208-0.093-0.452-0.101-0.668-0.18c-0.813-0.299-0.895-0.619-0.309-1.297
			c-1.824-1.884-3.652-3.771-5.479-5.658c0.694-0.72,1.556-0.795,2.572-0.242c1.429,0.779,2.855,1.563,4.283,2.343
			c0.125,0.067,0.251,0.131,0.497,0.257c0-0.772,0-1.474,0-2.174c0-0.694,0-1.389,0-2.119c0.578,0,1.124-0.106,1.597,0.033
			c0.404,0.119,0.792,0.466,1.071,0.806c1.033,1.259,2.012,2.563,3.033,3.833c0.119,0.147,0.387,0.292,0.555,0.263
			c2.18-0.38,4.354-0.792,6.591-1.207c-0.089-0.118-0.145-0.219-0.225-0.293c-1.294-1.184-2.535-2.44-3.909-3.525
			c-1.088-0.858-2.337-1.517-3.524-2.247c-2.988-1.836-5.981-3.662-8.972-5.492c-0.12-0.074-0.234-0.157-0.348-0.233
			c0.367-0.9,0.911-1.26,1.809-0.99c1.843,0.555,3.679,1.144,5.482,1.814c7.379,2.739,14.753,5.496,22.108,8.3
			c0.885,0.337,1.662,0.196,2.498,0.044c2.459-0.447,4.922-0.88,7.38-1.336c0.309-0.057,0.609-0.19,0.896-0.327
			c1.691-0.81,3.33-0.762,4.962,0.195c0.332,0.196,0.784,0.181,1.176,0.279c0.552,0.138,1.124,0.23,1.644,0.449
			c0.83,0.352,1.052,1.009,0.528,1.732c-0.412,0.565-0.936,1.093-1.515,1.483c-2.213,1.492-4.72,2.26-7.311,2.785
			c-2.136,0.432-4.27,0.871-6.411,1.272c-0.352,0.066-0.525,0.209-0.662,0.514c-1.647,3.726-3.316,7.441-4.944,11.175
			c-0.245,0.565-0.614,0.783-1.168,0.819c-0.196,0.012-0.394,0.021-0.588,0.005c-0.892-0.067-0.942-0.127-0.942-1.021
			c0-1.935,0.01-3.87-0.015-5.805c-0.002-0.253-0.126-0.553-0.294-0.742c-0.878-0.992-1.783-1.962-2.697-2.92
			c-0.125-0.132-0.359-0.232-0.539-0.227c-3.06,0.096-6.118,0.226-9.177,0.313C18.021,19.28,16.591,19.247,15.115,19.247z"/>
	</g>
</g>
</svg>
