<?xml version="1.0" encoding="utf-8"?>
<!-- Generator: Adobe Illustrator 16.0.0, SVG Export Plug-In . SVG Version: 6.00 Build 0)  -->
<!DOCTYPE svg PUBLIC "-//W3C//DTD SVG 1.1//EN" "http://www.w3.org/Graphics/SVG/1.1/DTD/svg11.dtd">
<svg version="1.1" id="Layer_1" xmlns="http://www.w3.org/2000/svg" xmlns:xlink="http://www.w3.org/1999/xlink" x="0px" y="0px"
	 width="110px" height="60px" viewBox="0 0 110 60" enable-background="new 0 0 110 60" xml:space="preserve">
<g>
	<path fill-rule="evenodd" clip-rule="evenodd" fill="#FFFFFF" d="M25.145,38.519c0,1.418,0.021,2.853-0.006,4.285
		c-0.031,1.633-0.683,2.261-2.273,2.076c-0.419-0.05-0.908-0.395-1.173-0.748c-1.5-2.016-2.911-4.097-4.429-6.101
		c-0.322-0.423-0.934-0.656-1.452-0.89c-0.417-0.188-0.908-0.203-1.34-0.362c-1.631-0.599-1.794-1.241-0.62-2.601
		c-3.66-3.78-7.325-7.566-10.988-11.35c1.392-1.445,3.121-1.595,5.158-0.485c2.867,1.563,5.726,3.134,8.591,4.699
		c0.249,0.136,0.504,0.262,0.996,0.516c0-1.549,0-2.956,0-4.362c0-1.392,0-2.784,0-4.249c1.16,0,2.254-0.214,3.204,0.065
		c0.81,0.239,1.588,0.935,2.148,1.617c2.073,2.526,4.036,5.141,6.083,7.689c0.236,0.295,0.775,0.586,1.112,0.527
		c4.372-0.762,8.733-1.588,13.22-2.421c-0.18-0.237-0.291-0.438-0.451-0.585c-2.597-2.376-5.082-4.895-7.839-7.071
		c-2.184-1.722-4.688-3.044-7.07-4.508c-5.992-3.682-11.998-7.344-17.996-11.016C9.779,3.097,9.55,2.93,9.323,2.778
		c0.736-1.807,1.827-2.526,3.63-1.984c3.695,1.112,7.377,2.295,10.994,3.639C38.749,9.926,53.539,15.455,68.291,21.08
		c1.773,0.676,3.334,0.394,5.012,0.089c4.933-0.898,9.871-1.766,14.801-2.68c0.619-0.115,1.224-0.381,1.799-0.656
		c3.392-1.625,6.68-1.529,9.953,0.393c0.665,0.392,1.571,0.362,2.358,0.558c1.106,0.275,2.254,0.462,3.295,0.901
		c1.666,0.704,2.112,2.024,1.06,3.473c-0.824,1.133-1.876,2.192-3.037,2.974c-4.439,2.993-9.466,4.536-14.662,5.586
		c-4.284,0.865-8.566,1.747-12.86,2.553c-0.705,0.132-1.055,0.417-1.327,1.031c-3.304,7.471-6.651,14.923-9.917,22.412
		c-0.493,1.135-1.234,1.57-2.345,1.643c-0.392,0.024-0.788,0.04-1.179,0.012c-1.787-0.136-1.89-0.256-1.89-2.046
		c0-3.884,0.021-7.765-0.028-11.646c-0.005-0.504-0.253-1.108-0.59-1.488c-1.762-1.988-3.577-3.934-5.411-5.856
		c-0.251-0.264-0.72-0.464-1.082-0.454c-6.137,0.192-12.271,0.452-18.407,0.628C30.971,38.586,28.104,38.519,25.145,38.519z"/>
</g>
</svg>
