<?xml version="1.0" encoding="utf-8"?>
<!-- Generator: Adobe Illustrator 16.0.0, SVG Export Plug-In . SVG Version: 6.00 Build 0)  -->
<!DOCTYPE svg PUBLIC "-//W3C//DTD SVG 1.1//EN" "http://www.w3.org/Graphics/SVG/1.1/DTD/svg11.dtd">
<svg version="1.1" id="Layer_1" xmlns="http://www.w3.org/2000/svg" xmlns:xlink="http://www.w3.org/1999/xlink" x="0px" y="0px"
	 width="60px" height="30px" viewBox="0 0 60 30" enable-background="new 0 0 60 30" xml:space="preserve">
<g>
	<g>
		<path fill="#E77C4C" d="M5.966,27.829c0,0.871-0.973,1.577-2.174,1.577l0,0c-1.2,0-2.173-0.706-2.173-1.577V2.171
			c0-0.871,0.973-1.577,2.173-1.577l0,0c1.201,0,2.174,0.706,2.174,1.577V27.829z"/>
		<path fill="#E77C4C" d="M58.381,28.362c0,0.577-0.742,1.044-1.66,1.044l0,0c-0.918,0-1.66-0.467-1.66-1.044V11.388
			c0-0.577,0.742-1.044,1.66-1.044l0,0c0.918,0,1.66,0.467,1.66,1.044V28.362z"/>
		<rect x="4.807" y="19.867" fill="#E77C4C" width="51.582" height="3.767"/>
		<circle fill="#E77C4C" cx="16.543" cy="10.726" r="5.667"/>
		<path fill="#E77C4C" d="M53.85,15.733c0,1.92-1.557,3.477-3.477,3.477H26.758c-1.92,0-3.477-1.557-3.477-3.477v-1.53
			c0-1.92,1.556-3.478,3.477-3.478h23.615c1.92,0,3.477,1.558,3.477,3.478V15.733z"/>
		<ellipse fill="#E77C4C" cx="16.588" cy="18.061" rx="6.201" ry="1.149"/>
	</g>
</g>
</svg>
