<?xml version="1.0" encoding="utf-8"?>
<!-- Generator: Adobe Illustrator 16.0.0, SVG Export Plug-In . SVG Version: 6.00 Build 0)  -->
<!DOCTYPE svg PUBLIC "-//W3C//DTD SVG 1.1//EN" "http://www.w3.org/Graphics/SVG/1.1/DTD/svg11.dtd">
<svg version="1.1" id="Layer_1" xmlns="http://www.w3.org/2000/svg" xmlns:xlink="http://www.w3.org/1999/xlink" x="0px" y="0px"
	 width="60px" height="30px" viewBox="0 0 60 30" enable-background="new 0 0 60 30" xml:space="preserve">
<g>
	<g>
		<path fill="#E77C4C" d="M37.453,0.412H22.381l-4.991,12.43h25.053L37.453,0.412z M23.637,1.448h12.561l4.157,10.358H19.478
			L23.637,1.448z"/>
		<path fill="#E77C4C" d="M43.183,11.921H16.816c-0.551,0-0.998,0.55-0.998,1.229v12.483h28.362V13.15
			C44.181,12.471,43.734,11.921,43.183,11.921z M20.893,19.154c-0.965,0-1.747-0.963-1.747-2.15c0-1.189,0.782-2.153,1.747-2.153
			c0.964,0,1.746,0.964,1.746,2.153C22.639,18.191,21.857,19.154,20.893,19.154z M39.273,19.154c-0.964,0-1.747-0.963-1.747-2.15
			c0-1.189,0.783-2.153,1.747-2.153c0.965,0,1.748,0.964,1.748,2.153C41.021,18.191,40.238,19.154,39.273,19.154z"/>
		<ellipse fill="#E77C4C" cx="20.587" cy="25.632" rx="2.559" ry="3.956"/>
		<ellipse fill="#E77C4C" cx="39.081" cy="25.634" rx="2.559" ry="3.954"/>
	</g>
</g>
</svg>
