<?xml version="1.0" encoding="utf-8"?>
<!-- Generator: Adobe Illustrator 16.0.0, SVG Export Plug-In . SVG Version: 6.00 Build 0)  -->
<!DOCTYPE svg PUBLIC "-//W3C//DTD SVG 1.1//EN" "http://www.w3.org/Graphics/SVG/1.1/DTD/svg11.dtd">
<svg version="1.1" id="Layer_1" xmlns="http://www.w3.org/2000/svg" xmlns:xlink="http://www.w3.org/1999/xlink" x="0px" y="0px"
	 width="60px" height="30px" viewBox="0 0 60 30" enable-background="new 0 0 60 30" xml:space="preserve">
<g>
	<path fill-rule="evenodd" clip-rule="evenodd" fill="#E67B4B" d="M4.578,21.03c-0.283,0.028-0.535-0.179-0.563-0.462L3.64,16.784
		c-0.029-0.282,0.178-0.535,0.461-0.562l18.257-1.811c0.283-0.028,0.535,0.178,0.563,0.461l0.375,3.783
		c0.029,0.283-0.179,0.534-0.461,0.563L4.578,21.03z"/>
	
		<rect x="24.828" y="12.957" transform="matrix(0.0987 0.9951 -0.9951 0.0987 39.8893 -11.0995)" fill-rule="evenodd" clip-rule="evenodd" fill="#E67B4B" width="2.489" height="7.027"/>
	<path fill-rule="evenodd" clip-rule="evenodd" fill="#E67B4B" d="M56.281,13.475c-0.787-7.94-7.862-13.737-15.803-12.95
		c-7.94,0.787-13.738,7.862-12.951,15.801c0.788,7.941,7.862,13.738,15.801,12.95C51.27,28.489,57.068,21.414,56.281,13.475z
		 M30.403,16.041C29.773,9.689,34.411,4.03,40.765,3.4c6.351-0.63,12.012,4.009,12.641,10.36c0.631,6.351-4.009,12.011-10.36,12.64
		C36.691,27.031,31.033,22.393,30.403,16.041z"/>
</g>
</svg>
