<?xml version="1.0" encoding="utf-8"?>
<!-- Generator: Adobe Illustrator 16.0.0, SVG Export Plug-In . SVG Version: 6.00 Build 0)  -->
<!DOCTYPE svg PUBLIC "-//W3C//DTD SVG 1.1//EN" "http://www.w3.org/Graphics/SVG/1.1/DTD/svg11.dtd">
<svg version="1.1" id="Layer_1" xmlns="http://www.w3.org/2000/svg" xmlns:xlink="http://www.w3.org/1999/xlink" x="0px" y="0px"
	 width="60px" height="30px" viewBox="0 0 60 30" enable-background="new 0 0 60 30" xml:space="preserve">
<path fill="#E77C4C" d="M43.616,26.017c0,0.553-0.447,1-1,1H17.385c-0.553,0-1-0.447-1-1V10.6c0-0.552,0.447-1,1-1h25.231
	c0.553,0,1,0.448,1,1V26.017z"/>
<path fill="#E77C4C" d="M36.371,10.082V6.663c0-0.79-0.447-1.43-1-1.43H24.629c-0.552,0-1,0.64-1,1.43v3.01 M23.629,9.672v0.205
	 M24.903,9.979V9.672V7.255c0-0.632,0.358-1.144,0.8-1.144h8.593c0.441,0,0.799,0.512,0.799,1.144v2.877"/>
</svg>
