<?xml version="1.0" encoding="utf-8"?>
<!-- Generator: Adobe Illustrator 16.0.0, SVG Export Plug-In . SVG Version: 6.00 Build 0)  -->
<!DOCTYPE svg PUBLIC "-//W3C//DTD SVG 1.1//EN" "http://www.w3.org/Graphics/SVG/1.1/DTD/svg11.dtd">
<svg version="1.1" id="Layer_1" xmlns="http://www.w3.org/2000/svg" xmlns:xlink="http://www.w3.org/1999/xlink" x="0px" y="0px"
	 width="60px" height="30px" viewBox="0 0 60 30" enable-background="new 0 0 60 30" xml:space="preserve">
<g>
	<path fill-rule="evenodd" clip-rule="evenodd" fill="#E67B4B" d="M31.202,18.476c0.076-0.315,0.157-0.603,0.21-0.895
		c0.032-0.182,0.113-0.233,0.291-0.229c0.587,0.009,1.177,0.003,1.766,0.001c0.069,0,0.141-0.009,0.243-0.015
		c-0.047-0.243-0.086-0.471-0.135-0.696c-0.327-1.48-0.659-2.96-0.985-4.441c-0.234-1.066-0.501-2.127-0.681-3.202
		c-0.061-0.356,0.102-0.751,0.175-1.126c0.007-0.032,0.123-0.06,0.188-0.06c1.239-0.002,2.479,0.003,3.72-0.001
		c0.156,0,0.221,0.054,0.255,0.206c0.47,2.086,0.944,4.172,1.42,6.257c0.258,1.126,0.521,2.251,0.78,3.377
		c0.207,0.9,0.417,1.8,0.608,2.703c0.078,0.369,0.267,0.623,0.605,0.778c0.072,0.032,0.146,0.069,0.211,0.117
		c0.188,0.137,0.277,0.347,0.202,0.547c-0.055,0.142-0.215,0.274-0.36,0.344c-0.148,0.069-0.335,0.074-0.504,0.074
		c-1.585,0.005-3.17,0.004-4.754,0.001c-0.152-0.001-0.306-0.021-0.458-0.04c-0.244-0.028-0.404-0.167-0.444-0.406
		c-0.041-0.236,0.011-0.453,0.247-0.58c0.007-0.004,0.016-0.011,0.023-0.015c0.607-0.366,0.613-0.463,0.474-1.212
		c-0.078-0.415-0.229-0.814-0.313-1.229c-0.045-0.218-0.14-0.267-0.346-0.264c-0.707,0.012-1.413,0.005-2.12,0.005
		C31.423,18.476,31.326,18.476,31.202,18.476z"/>
	<path fill-rule="evenodd" clip-rule="evenodd" fill="#E67B4B" d="M9.258,22.561c0-0.417-0.011-0.742,0.009-1.065
		c0.003-0.065,0.107-0.144,0.182-0.185c0.239-0.125,0.501-0.212,0.729-0.354c0.98-0.61,1.054-1.97,0.1-2.616
		c-0.586-0.396-1.247-0.687-1.89-0.991c-0.834-0.395-1.667-0.782-2.407-1.349c-1.21-0.924-1.77-2.151-1.755-3.662
		c0.01-1.018,0.226-1.974,0.813-2.821c0.639-0.924,1.521-1.509,2.6-1.787C8.062,7.621,8.5,7.567,8.982,7.478
		c0,0.396,0.013,0.737-0.011,1.075C8.967,8.624,8.837,8.705,8.75,8.747C8.294,8.966,7.92,9.261,7.753,9.761
		c-0.234,0.702,0.022,1.496,0.669,1.86c0.682,0.385,1.387,0.731,2.101,1.053c0.861,0.388,1.692,0.813,2.4,1.451
		c0.915,0.823,1.414,1.842,1.449,3.072c0.023,0.844-0.051,1.678-0.445,2.452c-0.29,0.569-0.667,1.05-1.145,1.487
		c-0.57,0.523-1.208,0.891-1.934,1.1C10.351,22.381,9.83,22.447,9.258,22.561z"/>
	<path fill-rule="evenodd" clip-rule="evenodd" fill="#E67B4B" d="M50.226,7.814c0.585,0,1.135,0,1.686,0
		c1.049,0,2.099-0.01,3.147,0.009c0.201,0.004,0.438,0.076,0.589,0.2c0.3,0.249,0.196,0.711-0.161,0.868
		c-0.082,0.036-0.172,0.056-0.257,0.086c-0.306,0.109-0.456,0.306-0.455,0.651c0.006,2.724,0,5.447-0.001,8.172
		c0,0.859,0.012,1.72,0.002,2.579c-0.004,0.341,0.129,0.55,0.449,0.649c0.077,0.023,0.151,0.059,0.227,0.088
		c0.247,0.098,0.377,0.277,0.36,0.546c-0.019,0.268-0.185,0.429-0.426,0.505c-0.117,0.037-0.249,0.046-0.373,0.046
		c-1.675,0.004-3.35,0.003-5.024,0.001c-0.116-0.001-0.236-0.012-0.348-0.04c-0.248-0.064-0.418-0.217-0.443-0.482
		c-0.03-0.276,0.083-0.505,0.351-0.571c0.589-0.144,0.69-0.528,0.688-1.073c-0.018-3.955-0.01-7.91-0.01-11.864
		C50.226,8.077,50.226,7.97,50.226,7.814z"/>
	<path fill-rule="evenodd" clip-rule="evenodd" fill="#E67B4B" d="M14.156,4.594c0.056,0.307-0.21,0.523-0.215,0.808
		c-0.574,0.102-0.994,0.048-1.194-0.161c-0.02,0.067-0.038,0.126-0.042,0.143c-0.333,0-0.651,0-0.979,0
		c0.044-0.164-0.09-0.209-0.18-0.106c-0.159,0.184-0.355,0.134-0.538,0.155c-0.188,0.021-0.38,0.013-0.568-0.001
		c-0.081-0.006-0.158-0.061-0.165-0.063c-0.203,0.028-0.351,0.055-0.5,0.068C9.651,5.447,9.526,5.443,9.402,5.444
		c-0.522,0-1.045,0-1.586,0C7.821,5.362,7.825,5.277,7.83,5.173C7.752,5.169,7.685,5.167,7.591,5.162
		c0.024,0.19,0.021,0.328-0.238,0.277C7.176,5.405,6.981,5.474,6.794,5.467C6.686,5.463,6.58,5.4,6.463,5.36
		C6.458,5.377,6.447,5.417,6.446,5.42c-0.259,0-0.508,0.008-0.756-0.002C5.464,5.407,5.274,5.127,4.976,5.34
		C5.065,5.37,5.121,5.388,5.177,5.406C5.167,5.43,5.158,5.454,5.149,5.477c-0.157-0.069-0.313-0.138-0.499-0.22
		c0.023,0.078,0.04,0.134,0.066,0.224c-0.699,0-1.375,0-2.052,0C2.539,5.482,2.41,5.5,2.286,5.48C2.131,5.456,1.981,5.403,1.82,5.36
		c0-0.001-0.009,0.078-0.05,0.135C1.723,5.563,1.646,5.612,1.583,5.669C1.597,5.692,1.61,5.715,1.625,5.737
		c0.104-0.053,0.208-0.104,0.343-0.173c0,4.93,0,9.858,0,14.776c-0.076-0.05-0.163-0.148-0.261-0.16
		c-0.097-0.013-0.21,0.051-0.305,0.102c-0.044,0.024-0.07,0.099-0.085,0.153c-0.03,0.111-0.046,0.226-0.077,0.385
		c0.049,0.009,0.188,0.063,0.21,0.032c0.062-0.084,0.074-0.204,0.13-0.391c0.082,0.119,0.146,0.211,0.208,0.304
		c0.039,0.057,0.076,0.113,0.112,0.174c0.034,0.056,0.091,0.113,0.092,0.171c0.007,0.557,0.004,1.115,0.004,1.691
		c-0.062-0.023-0.106-0.04-0.15-0.057c0,0.017-0.006,0.043,0,0.046c0.128,0.071,0.18,0.169,0.173,0.327
		c-0.016,0.358-0.005,0.718-0.005,1.086c-0.075-0.037-0.128-0.062-0.246-0.119c0.231,0.362,0.422,0.66,0.612,0.958
		c0.011-0.027,0.027-0.073,0.031-0.082c0.09,0.041,0.209,0.139,0.262,0.11c0.16-0.083,0.467-0.033,0.378-0.418
		c0.354,0.042,0.677,0.112,0.999,0.109c0.625-0.004,1.25-0.059,1.875-0.075c0.441-0.013,0.885-0.012,1.327,0.007
		c0.492,0.021,0.981-0.027,1.472-0.017c0.173,0.003,0.357-0.028,0.375,0.272c0.022-0.019,0.044-0.037,0.066-0.057
		c0.015-0.065,0.029-0.133,0.048-0.226c1.371,0,2.748,0,4.125,0c0.153,0,0.308-0.01,0.458,0.014c0.069,0.011,0.129,0.09,0.176,0.073
		c0.212-0.027,0.424-0.072,0.637-0.079c0.552-0.021,1.103-0.024,1.655-0.03c0.304-0.004,0.608-0.001,0.893-0.001
		c-0.036,0.195-0.076,0.38-0.095,0.564c-0.004,0.037,0.082,0.124,0.106,0.117c0.083-0.024,0.157-0.079,0.229-0.119
		c0.261,0.126,0.542,0.262,0.768,0.371c0.068,0.146,0.116,0.246,0.161,0.34c-0.213,0.06-0.226,0.049-0.293-0.284
		c-0.134-0.047-0.253-0.089-0.407-0.144c-0.015,0.089-0.033,0.196-0.061,0.365c0.145-0.075,0.206-0.107,0.268-0.136
		c0.014-0.007,0.035,0.002,0.072,0.007c-0.03,0.044-0.055,0.082-0.082,0.122c0.046-0.006,0.09-0.01,0.134-0.014
		c0.002,0.021,0.004,0.04,0.006,0.062c-0.304,0.021-0.608,0.06-0.912,0.062c-0.899,0.009-1.798,0.011-2.698,0
		c-0.203-0.002-0.403-0.074-0.607-0.091c-0.075-0.006-0.154,0.077-0.234,0.085c-0.179,0.019-0.36,0.021-0.54,0.021
		c-0.525,0.002-1.051,0.006-1.575-0.004c-0.138-0.004-0.276-0.057-0.415-0.085c-0.048-0.011-0.104-0.041-0.143-0.024
		c-0.231,0.088-0.383-0.035-0.535-0.195c-0.015,0.076-0.029,0.145-0.042,0.213c-0.014-0.001-0.028-0.002-0.042-0.002
		c0-0.147,0-0.296,0-0.443c-0.014-0.002-0.027-0.002-0.041-0.003c-0.036,0.169-0.072,0.34-0.106,0.499
		c-0.184,0.015-0.372,0.043-0.56,0.043c-1.816,0.009-3.631,0.013-5.447,0.019c-0.054,0-0.108,0.004-0.163,0.01
		c-0.241,0.024-0.329-0.109-0.344-0.335c-0.269,0.217-0.354-0.184-0.627-0.146c-0.006,0.083,0.009,0.202-0.028,0.301
		c-0.027,0.074-0.118,0.171-0.186,0.176c-0.346,0.02-0.693,0.027-1.039,0.014c-0.214-0.008-0.434-0.041-0.641-0.099
		c-0.294-0.084-0.455-0.356-0.452-0.665c0.005-0.525-0.008-1.052-0.002-1.578c0.001-0.131,0.04-0.262,0.061-0.392
		c-0.018-0.225-0.049-0.463-0.053-0.703c-0.008-0.557-0.002-1.113-0.002-1.634c0.061-0.082,0.109-0.149,0.159-0.216
		c-0.055-0.021-0.109-0.043-0.155-0.061c0-0.257,0.002-0.521,0-0.784c-0.008-0.828-0.021-1.655-0.028-2.483
		c-0.006-0.821-0.021-1.645,0-2.466c0.006-0.228,0.13-0.454,0.205-0.695c-0.032,0.007-0.116,0.025-0.219,0.048
		c0-1.057-0.006-2.122,0.005-3.188c0.002-0.269,0.108-0.545,0.069-0.803C0.6,10.126,0.507,10.001,0.664,9.919
		C0.621,9.809,0.56,9.724,0.559,9.637C0.551,8.743,0.546,7.849,0.557,6.954c0.002-0.136,0.09-0.271,0.157-0.458
		c-0.262-0.15-0.162-0.485-0.169-0.788C0.539,5.446,0.544,5.184,0.544,4.921C0.543,4.452,0.824,4.179,1.3,4.179
		C1.997,4.18,2.693,4.171,3.389,4.174c0.275,0.001,0.551,0.018,0.825,0.04c0.04,0.003,0.074,0.077,0.125,0.133
		c0.02-0.051,0.038-0.096,0.041-0.103c0.107-0.015,0.194-0.034,0.281-0.037C4.74,4.204,4.845,4.191,4.89,4.235
		c0.044,0.042,0.027,0.149,0.043,0.281c-0.098-0.11-0.152-0.172-0.207-0.233c-0.019,0.133-0.222,0.292,0.042,0.33
		c-0.015,0.061-0.03,0.121-0.048,0.19c0.315-0.071,0.521-0.339,0.477-0.62c0.745-0.02,1.488-0.042,2.238,0.021
		C7.441,4.272,7.45,4.379,7.461,4.518C7.556,4.507,7.647,4.496,7.8,4.478c-0.116-0.107-0.176-0.164-0.236-0.22
		C7.571,4.235,7.579,4.21,7.585,4.186c0.818,0,1.637,0,2.471,0c0.02,0.048,0.044,0.108,0.089,0.216
		c0.231-0.445,0.601-0.176,0.901-0.237c0.299-0.061,0.623-0.077,0.899,0.111c0.38-0.257,0.813-0.07,1.189-0.146
		c0,0.074-0.021,0.142,0.003,0.181c0.123,0.195,0.127,0.192,0.3,0.149c-0.059-0.05-0.104-0.088-0.181-0.153
		c0.447,0.002,0.156,0.333,0.275,0.494c0.072-0.125,0.202-0.25,0.184-0.347c-0.021-0.118-0.167-0.213-0.265-0.324
		c0.092,0.032,0.194,0.068,0.301,0.106c0.116-0.035,0.263-0.079,0.41-0.122c0.015,0.029,0.031,0.058,0.047,0.087
		c-0.088,0.057-0.176,0.115-0.332,0.217c0.109,0.069,0.195,0.124,0.281,0.178L14.156,4.594z M5.671,4.881
		c0.188-0.385-0.176-0.412-0.323-0.583C5.33,4.437,5.341,4.57,5.34,4.705C5.339,4.836,5.325,4.968,5.316,5.099
		c0.031,0.001,0.062,0.003,0.092,0.005c0.038-0.13,0.075-0.26,0.122-0.423C5.598,4.776,5.631,4.824,5.671,4.881z M14.97,25.387
		c-0.017,0.022-0.034,0.043-0.05,0.064c0.072,0.036,0.144,0.102,0.218,0.106c0.327,0.016,0.346-0.259,0.467-0.503
		c-0.216,0.01-0.388,0.019-0.555,0.025c0.104,0.088,0.201,0.171,0.3,0.255c-0.019,0.018-0.036,0.036-0.054,0.052
		C15.188,25.387,15.079,25.387,14.97,25.387z M1.092,23.004c0.174,0.281,0.301,0.486,0.435,0.703
		c0.257-0.271-0.047-0.404-0.104-0.583C1.405,23.069,1.248,23.058,1.092,23.004z M1.715,24.45c-0.095-0.195-0.168-0.395-0.414-0.303
		c-0.049,0.018-0.068,0.174-0.063,0.264C1.244,24.53,1.371,24.539,1.715,24.45z M1.345,6.887c0.088-0.103,0.159-0.186,0.231-0.269
		C1.562,6.594,1.547,6.57,1.533,6.546c-0.21,0.08-0.42,0.161-0.631,0.24C0.9,6.813,0.897,6.84,0.896,6.867
		c0.11,0.039,0.22,0.078,0.345,0.122c0-0.109,0-0.167,0-0.278C1.3,6.813,1.332,6.864,1.345,6.887z M1.625,10.288
		c-0.078-0.044-0.147-0.083-0.217-0.123c-0.023,0.045-0.072,0.125-0.067,0.129c0.071,0.048,0.144,0.107,0.225,0.122
		c0.112,0.02,0.23,0.005,0.398,0.005c-0.095-0.149-0.142-0.223-0.196-0.307C1.716,10.177,1.666,10.237,1.625,10.288z M4.063,4.525
		C3.944,4.761,4.179,4.847,4.329,4.944C4.403,4.993,4.535,4.953,4.69,4.953C4.444,4.785,4.261,4.661,4.063,4.525z M1.592,12.17
		c0.046-0.121,0.081-0.208,0.132-0.344C1.55,11.84,1.412,11.85,1.274,11.86c-0.006,0.034-0.011,0.069-0.017,0.104
		C1.365,12.03,1.473,12.097,1.592,12.17z M1.104,20.1c-0.178,0.146-0.289,0.236-0.399,0.328c0.019,0.02,0.037,0.042,0.056,0.063
		c0.049-0.043,0.098-0.085,0.127-0.111c0.065,0.081,0.117,0.146,0.216,0.271C1.104,20.438,1.104,20.312,1.104,20.1z M9.253,4.372
		C9.182,4.568,9.11,4.764,9.018,5.02C9.281,4.901,9.281,4.901,9.253,4.372z M1.848,21.357c-0.005-0.037-0.01-0.075-0.016-0.111
		c-0.113-0.008-0.225-0.023-0.338-0.022c-0.042,0-0.086,0.035-0.128,0.055c0.029,0.051,0.062,0.146,0.087,0.146
		C1.585,21.415,1.716,21.382,1.848,21.357z M1.052,20.945C1,21.106,0.951,21.228,0.927,21.355c-0.005,0.03,0.071,0.095,0.12,0.108
		c0.04,0.011,0.113-0.016,0.138-0.051c0.023-0.031,0.013-0.101-0.002-0.145C1.154,21.176,1.112,21.089,1.052,20.945z"/>
	<path fill-rule="evenodd" clip-rule="evenodd" fill="#E67B4B" d="M21.58,22.503c-0.782-0.027-1.52-0.133-2.22-0.416
		c-2.108-0.854-3.146-2.554-3.579-4.673c-0.378-1.853-0.307-3.705,0.313-5.507c0.611-1.775,1.678-3.171,3.441-3.943
		c0.633-0.277,1.304-0.421,2.021-0.448c0,0.372,0,0.737,0,1.123c-0.948,0.275-1.166,1.027-1.167,1.9
		c-0.004,2.663-0.009,5.324,0.004,7.988c0.003,0.602,0.039,1.208,0.125,1.803c0.069,0.479,0.416,0.795,0.859,0.969
		c0.168,0.065,0.213,0.148,0.206,0.314C21.572,21.9,21.58,22.188,21.58,22.503z"/>
	<path fill-rule="evenodd" clip-rule="evenodd" fill="#E67B4B" d="M48.532,13.666c0.268-1.011,0.535-2.022,0.801-3.033
		c0.016,0,0.033,0,0.048-0.001c0.007,0.072,0.017,0.143,0.019,0.213c0,1.006,0.03,2.012-0.015,3.016
		c-0.018,0.422-0.182,0.841-0.3,1.256c-0.339,1.198-0.689,2.394-1.035,3.59c-0.313,1.095-0.63,2.187-0.94,3.28
		c-0.045,0.156-0.103,0.251-0.293,0.234c-0.177-0.018-0.324,0.021-0.405-0.23c-0.729-2.297-1.476-4.589-2.223-6.879
		c-0.573-1.758-1.148-3.516-1.735-5.27c-0.082-0.245-0.204-0.49-0.367-0.688c-0.104-0.127-0.307-0.211-0.479-0.237
		c-0.479-0.072-0.689-0.314-0.575-0.716c0.059-0.206,0.196-0.323,0.397-0.363c0.113-0.023,0.232-0.024,0.352-0.024
		c1.476-0.002,2.951,0.003,4.428-0.006c0.217-0.001,0.319,0.058,0.389,0.268c0.424,1.304,0.861,2.605,1.299,3.905
		c0.188,0.563,0.389,1.121,0.585,1.682C48.499,13.665,48.516,13.666,48.532,13.666z"/>
	<path fill-rule="evenodd" clip-rule="evenodd" fill="#E67B4B" d="M22.262,25.501c0.307-0.173,0.336-0.248,0.242-0.58
		c-0.025-0.09-0.034-0.185-0.06-0.33c0.198,0.049,0.359,0.119,0.521,0.12c0.22,0.001,0.439-0.073,0.66-0.077
		c0.484-0.011,0.971-0.006,1.456,0.016c0.102,0.005,0.2,0.107,0.302,0.166c0.001-0.013,0.007-0.085,0.017-0.204
		c6.391,0,12.775,0,19.178,0c0.006,0.053,0.014,0.127,0.032,0.271c0.317-0.326,0.648-0.392,1.017-0.197
		c0.189-0.249,0.468-0.042,0.677-0.121c0.085,0.16,0.16,0.3,0.235,0.438c0.124-0.394,0.129-0.429,0.6-0.442
		c0.713-0.022,1.429-0.004,2.144,0.005c0.083,0.001,0.164,0.048,0.193,0.056c0.156-0.037,0.278-0.092,0.397-0.09
		c0.523,0.008,1.046,0.052,1.567,0.048c0.789-0.005,1.578-0.045,2.366-0.053c0.27-0.005,0.54,0.042,0.811,0.066
		c0.034,0.004,0.075,0.034,0.101,0.022c0.33-0.148,0.216,0.094,0.211,0.239c0.161,0.01,0.321,0.021,0.485,0.032
		c0.023-0.077,0.051-0.162,0.077-0.249c0.024-0.013,0.049-0.026,0.073-0.041c0.022,0.069,0.044,0.136,0.066,0.205
		c0.021-0.015,0.043-0.028,0.063-0.043c-0.004-0.047-0.019-0.096-0.007-0.138c0.012-0.038,0.052-0.066,0.079-0.102
		c0.019,0.03,0.046,0.058,0.053,0.091c0.054,0.228,0.269,0.276,0.421,0.256c0.169-0.024,0.46-0.005,0.422-0.294
		c0.295-0.02,0.581-0.041,0.881-0.063c0.027,0.147,0.049,0.266,0.074,0.405c0.208-0.3,0.4-0.579,0.587-0.849
		c0.063,0.079,0.154,0.19,0.261,0.322c0.059-0.122,0.089-0.188,0.12-0.254c0.047,0.032,0.137,0.085,0.133,0.094
		c-0.035,0.074-0.081,0.148-0.138,0.21c-0.061,0.069-0.138,0.125-0.284,0.254c0.085,0.046,0.173,0.095,0.246,0.135
		c-0.084,0.143-0.155,0.264-0.223,0.378c0.029,0.065,0.068,0.147,0.106,0.23c0.126-0.127,0.248-0.25,0.376-0.381
		c0.019-0.149,0.022-0.33,0.066-0.498c0.016-0.052,0.141-0.074,0.243-0.124c0.01,0.138,0.016,0.232,0.021,0.326
		c0.026,0,0.053,0,0.078,0c0-0.183,0-0.364,0-0.547c0.026-0.003,0.053-0.008,0.078-0.012c0.033,0.038,0.081,0.07,0.096,0.114
		c0.13,0.398,0.114,0.808-0.066,1.174c-0.074,0.146-0.304,0.22-0.47,0.314c-0.025,0.015-0.103-0.022-0.13-0.058
		c-0.181-0.221-0.34-0.208-0.504,0.015c-0.042,0.058-0.188,0.079-0.271,0.058c-0.126-0.032-0.232-0.02-0.36-0.005
		c-0.348,0.039-0.703,0.003-1.055,0.014c-0.223,0.009-0.412-0.041-0.569-0.21c0.029,0.055,0.061,0.109,0.09,0.164
		c-0.009,0.029-0.017,0.059-0.023,0.088c-0.274-0.045-0.552-0.089-0.825-0.133c0.087-0.021,0.172-0.044,0.258-0.064
		c0.002-0.03,0.005-0.062,0.007-0.092c-0.11-0.083-0.215-0.219-0.333-0.232c-0.079-0.011-0.18,0.151-0.27,0.239
		c0.014,0.021,0.028,0.046,0.044,0.068c0.051-0.021,0.103-0.045,0.156-0.06c0.137-0.04,0.183,0.015,0.144,0.147
		c-0.247,0.021-0.495,0.051-0.743,0.063c-0.375,0.018-0.749,0.028-1.125,0.034c-0.508,0.008-1.02,0.05-1.521,0
		c-0.387-0.036-0.763,0.04-1.143,0.012c-0.098-0.008-0.194-0.046-0.287-0.084c-0.135-0.057-0.264-0.126-0.429-0.205
		c0.043,0.102,0.069,0.162,0.09,0.211c-0.262,0.027-0.513,0.076-0.763,0.078c-1.394,0.013-2.787,0.022-4.179,0.011
		c-0.19-0.002-0.475-0.236-0.551-0.171c-0.187,0.16-0.388,0.188-0.578,0.169c-0.427-0.043-0.849,0.039-1.274,0.017
		c-0.47-0.024-0.94-0.004-1.411-0.002c-0.461,0.001-0.923,0.006-1.384,0.007c-0.824,0.004-1.646,0.007-2.468,0.005
		c-0.067,0-0.156-0.007-0.196-0.049c-0.13-0.133-0.229-0.071-0.379-0.022c-0.237,0.079-0.501,0.077-0.759,0.108
		c-0.034-0.228-0.047-0.43-0.313-0.386c-0.199,0.032-0.265,0.159-0.198,0.349c-1.231,0-2.445,0-3.663,0
		c0.016-0.063,0.029-0.129,0.036-0.157c0.125,0.05,0.252,0.101,0.377,0.15c0.024-0.032,0.049-0.064,0.073-0.097
		c-0.129-0.13-0.258-0.26-0.403-0.405c-0.154,0.205-0.279,0.371-0.404,0.537c-0.074-0.167-0.121-0.273-0.169-0.381
		c-0.042,0.118-0.083,0.236-0.135,0.387c-0.671,0-1.376,0.003-2.081-0.002c-1.031-0.006-2.063-0.053-3.09-0.006
		c-0.329,0.014-0.57-0.098-0.844-0.195c-0.18-0.063-0.367-0.111-0.572-0.172c-0.007,0.03-0.024,0.098-0.04,0.166
		c-0.016,0.066-0.018,0.181-0.049,0.19c-0.091,0.025-0.209,0.037-0.286-0.004c-0.042-0.021-0.043-0.162-0.029-0.243
		c0.011-0.059,0.125-0.119,0.115-0.158c-0.071-0.263-0.163-0.521-0.252-0.779c-0.003-0.009-0.048,0-0.099,0c0,0.219,0,0.436,0,0.651
		c-0.021,0.004-0.042,0.009-0.063,0.013c-0.051-0.162-0.102-0.324-0.178-0.562c-0.157,0.361-0.453,0.531-0.454,0.912
		c-0.001,0.219-0.292,0.168-0.489,0.188c0.017-0.128,0.031-0.234,0.046-0.341c-0.024-0.006-0.048-0.011-0.072-0.016
		c-0.024,0.063-0.047,0.126-0.077,0.205c-0.153-0.096-0.278-0.286-0.49-0.146c-0.017-0.037-0.034-0.076-0.051-0.113L22.262,25.501z
		 M49.448,24.787c0.083,0.118,0.147,0.205,0.207,0.296c0.064,0.098,0.109,0.211,0.188,0.292c0.036,0.036,0.154,0.041,0.199,0.01
		c0.107-0.074,0.194-0.178,0.289-0.27c-0.124-0.099-0.519,0.139-0.36-0.328C49.774,24.787,49.6,24.787,49.448,24.787z M52.95,25.539
		c-0.076-0.026-0.183-0.065-0.341-0.12c0.093-0.106,0.169-0.196,0.284-0.328c-0.081-0.02-0.169-0.063-0.242-0.048
		c-0.054,0.01-0.144,0.657-0.097,0.69c0.032,0.025,0.112,0.021,0.153-0.002C52.785,25.687,52.851,25.62,52.95,25.539z
		 M30.008,25.052c-0.471-0.176-0.697-0.074-0.815,0.267C29.428,25.241,29.689,25.156,30.008,25.052z M23.048,25.435
		c-0.047-0.188-0.088-0.355-0.142-0.57c-0.118,0.213-0.211,0.379-0.316,0.57C22.767,25.435,22.89,25.435,23.048,25.435z
		 M59.085,25.03c0,0.2,0,0.368,0,0.537c0.03,0.002,0.059,0.004,0.087,0.006c0.051-0.15,0.102-0.302,0.156-0.466
		C59.268,25.087,59.196,25.064,59.085,25.03z M43.99,24.789c0.055,0.093,0.094,0.158,0.141,0.238
		c0.043-0.135,0.418-0.099,0.143-0.337C44.19,24.719,44.108,24.749,43.99,24.789z M57.214,25.369
		c-0.092,0.017-0.172,0.032-0.293,0.057c0.059,0.113,0.114,0.217,0.169,0.319c0.022-0.012,0.046-0.025,0.069-0.038
		C57.176,25.596,57.194,25.484,57.214,25.369z"/>
	<path fill-rule="evenodd" clip-rule="evenodd" fill="#E67B4B" d="M58.97,23.374c0,0.094,0,0.186,0,0.296
		c-0.142,0.048-0.257,0.055-0.237-0.186c-0.148,0.173-0.278,0.377-0.537,0.249c-0.068-0.034-0.14-0.103-0.162-0.171
		c-0.017-0.05,0.046-0.124,0.071-0.189c0.038-0.095,0.071-0.19,0.1-0.266c0.071-0.089,0.137-0.173,0.204-0.257
		c-0.016-0.015-0.032-0.027-0.046-0.041c-0.105,0.047-0.211,0.094-0.329,0.148c-0.011-0.472-0.011-0.472,0.437-0.612
		c-0.235-0.319-0.515-0.605-0.461-1.051c0.047-0.399-0.041-0.812,0.023-1.212c0.033,0.003,0.067,0.006,0.101,0.008
		c-0.004,0.079-0.008,0.158-0.012,0.237c0.027,0.01,0.056,0.022,0.083,0.032c0.032-0.081,0.116-0.2,0.088-0.241
		c-0.335-0.483-0.301-1.029-0.296-1.576c0.007-0.66-0.005-1.32,0.005-1.981c0.006-0.352,0.064-0.705,0.06-1.056
		c-0.01-0.806-0.058-1.611-0.064-2.417c-0.006-0.759,0.024-1.517,0.033-2.276c0.002-0.16-0.059-0.327-0.028-0.478
		c0.029-0.143-0.132-0.357,0.143-0.441c0.035-0.011,0.005-0.24,0.005-0.377c-0.043,0.026-0.076,0.047-0.156,0.095
		c0-0.499-0.019-0.971,0.015-1.439c0.008-0.112,0.011-0.208,0.002-0.322c-0.038-0.477-0.031-0.958-0.018-1.437
		c0.005-0.17,0.1-0.331,0.019-0.517c-0.014-0.028,0.219-0.165,0.337-0.252c0.019,0.019,0.037,0.037,0.054,0.055
		c-0.013,0.056-0.028,0.113-0.043,0.169c0.014,0.005,0.028,0.011,0.041,0.016c0.078-0.102,0.155-0.203,0.248-0.325
		c-0.104-0.007-0.179-0.025-0.247-0.013c-0.195,0.036-0.39,0.107-0.462-0.186c-0.007-0.032-0.162-0.041-0.248-0.041
		c-1.302-0.002-2.604-0.001-3.912-0.001c0.008-0.076,0.017-0.145,0.024-0.222c-0.279-0.083-0.549-0.164-0.861-0.257
		c-0.07,0.149,0.127,0.584-0.372,0.468c-0.032-0.171-0.244-0.373,0.082-0.478c-0.063-0.267-0.122-0.521-0.188-0.805
		c0.403,0,0.77-0.052,1.165,0.079c0.045-0.017,0.152-0.089,0.26-0.091c0.684-0.007,1.369,0.007,2.052,0.003
		c0.775-0.004,1.551-0.036,2.325-0.024c0.331,0.004,0.71-0.075,0.955,0.252c0.088,0.115,0.184,0.269,0.175,0.398
		c-0.016,0.247,0.133,0.542-0.103,0.686c0.046,0.169,0.107,0.299,0.109,0.429c0.013,0.615,0.01,1.23,0.006,1.845
		c-0.001,0.082-0.046,0.163-0.072,0.249c0.026,0.147,0.076,0.316,0.079,0.485c0.008,0.757,0.004,1.514,0.003,2.27
		c-0.001,0.452-0.002,0.904-0.014,1.355c-0.003,0.093-0.057,0.184-0.113,0.271c0.033,0.206,0.266,0.4,0.042,0.642
		c0.201,0.353,0.061,0.737,0.091,1.105c0.012,0.133-0.037,0.271-0.047,0.329c0.028,0.321,0.066,0.572,0.067,0.825
		c0.009,1.428,0.008,2.858,0.01,4.287c0.001,1.126,0.005,2.253,0,3.381c0,0.229-0.035,0.458-0.054,0.667
		c-0.114-0.025-0.274-0.062-0.434-0.096c0.27-0.172,0.411-0.172,0.238-0.766c-0.016-0.047-0.082-0.079-0.11-0.105
		C59.05,22.81,59.011,23.092,58.97,23.374z M59.236,7.69C59.099,7.6,59.015,7.504,58.96,7.518c-0.085,0.022-0.151,0.12-0.225,0.185
		c0.082,0.062,0.157,0.152,0.249,0.175C59.033,7.89,59.11,7.788,59.236,7.69z M58.191,4.381c-0.007-0.025-0.013-0.05-0.019-0.076
		c-0.38-0.135-0.607-0.063-0.645,0.212C57.753,4.471,57.973,4.426,58.191,4.381z M58.704,21.868
		c-0.027-0.006-0.054-0.013-0.081-0.019c-0.013,0.104-0.032,0.207-0.038,0.312c-0.007,0.104-0.001,0.209-0.001,0.319
		C58.827,22.517,58.827,22.517,58.704,21.868z M58.669,21.429c0.043,0.027,0.065,0.055,0.087,0.055c0.089,0,0.178-0.009,0.266-0.013
		c-0.029-0.064-0.068-0.127-0.087-0.193c-0.016-0.058-0.009-0.122-0.013-0.185c-0.023-0.009-0.048-0.018-0.071-0.027
		C58.792,21.183,58.734,21.299,58.669,21.429z M59.115,20.447c-0.011,0.173-0.017,0.292-0.022,0.41
		c0.072-0.026,0.166-0.035,0.216-0.085C59.457,20.623,59.322,20.56,59.115,20.447z M56.885,4.835
		c0.018-0.028,0.033-0.057,0.05-0.085c-0.199-0.123-0.398-0.246-0.599-0.369C56.317,4.414,56.3,4.445,56.28,4.476
		C56.482,4.596,56.684,4.716,56.885,4.835z"/>
	<path fill-rule="evenodd" clip-rule="evenodd" fill="#E67B4B" d="M45.643,4.506c0.098,0.112,0.363,0.207,0.146,0.468
		c0.052,0.028,0.102,0.073,0.156,0.08c0.042,0.005,0.092-0.034,0.17-0.067c-0.019,0.122-0.032,0.213-0.056,0.36
		c-0.687,0-1.377,0.034-2.062-0.009c-0.665-0.042-1.33,0.096-2.044-0.009c0.109-0.073,0.179-0.118,0.312-0.206
		c-0.18,0.012-0.275,0.018-0.39,0.026c0.007,0.044,0.017,0.099,0.036,0.22c-0.827,0-1.642,0-2.456,0
		c-0.045,0-0.091-0.011-0.134-0.002c-0.249,0.05-0.439-0.006-0.504-0.319c-0.048,0.054-0.073,0.083-0.126,0.143
		c-0.033-0.123-0.061-0.224-0.104-0.386C38.543,4.97,38.514,5.08,38.482,5.19c-0.02-0.002-0.037-0.006-0.058-0.008
		c0-0.127,0-0.253,0-0.381C38.413,4.8,38.4,4.799,38.389,4.798c-0.03,0.146-0.063,0.292-0.098,0.461
		c-0.036-0.023-0.075-0.046-0.059-0.037c-0.14,0.055-0.24,0.129-0.343,0.13c-0.495,0.006-0.99-0.009-1.484-0.012
		c-0.107,0-0.214,0.032-0.32,0.028c-0.098-0.003-0.19-0.038-0.334-0.069c-0.015,0.007-0.091,0.075-0.166,0.075
		c-1.229,0.007-2.46,0.005-3.704,0.005c-0.033-0.146-0.063-0.284-0.097-0.429c-0.273,0.245-0.361-0.219-0.641-0.146
		c0,0.182,0,0.375,0,0.559c-0.297,0-0.567,0-0.899,0c0.155-0.137,0.286-0.24,0.4-0.359c0.046-0.047,0.092-0.152,0.07-0.193
		c-0.042-0.078-0.126-0.164-0.207-0.183c-0.126-0.03-0.264-0.008-0.427-0.008c0.134-0.388-0.326-0.287-0.381-0.537
		c0.166,0,0.335,0.006,0.504-0.001c0.194-0.008,0.401-0.045,0.356,0.297c0.068-0.065,0.098-0.094,0.127-0.122
		c0.236,0.247,0.41,0.012,0.582-0.092c0.136-0.083,0.216-0.145,0.314,0.035c0.043,0.079,0.138,0.128,0.244,0.15
		c-0.028-0.078-0.056-0.155-0.074-0.206c0.957-0.118,1.884-0.065,2.812-0.066c0.938-0.001,1.877-0.067,2.875,0.032
		c0.158-0.167,0.454-0.053,0.715-0.058c0.441-0.008,0.883,0.054,1.324,0.05c0.821-0.008,1.644-0.069,2.464-0.045
		c0.224,0.007,0.439-0.05,0.655-0.02c0.252,0.036,0.5-0.004,0.749-0.004c0.272,0,0.544,0.003,0.816,0.003
		c0.28,0,0.56-0.006,0.84-0.006c0.306,0,0.368,0.095,0.287,0.39c-0.015,0.054,0.053,0.184,0.089,0.187
		C45.451,4.612,45.529,4.554,45.643,4.506z M43.186,4.701c-0.002,0.034-0.004,0.068-0.006,0.102
		c0.115,0.013,0.271,0.079,0.336,0.028c0.135-0.104,0.222-0.272,0.327-0.413c-0.018-0.023-0.035-0.046-0.053-0.07
		c-0.124,0.009-0.245,0.017-0.391,0.026c0.08,0.12,0.136,0.2,0.205,0.302C43.433,4.687,43.311,4.694,43.186,4.701z"/>
	<path fill-rule="evenodd" clip-rule="evenodd" fill="#E67B4B" d="M14.159,4.597c-0.036-0.158-0.032-0.274,0.19-0.238
		c0.065,0.01,0.14-0.041,0.229-0.071c0.004,0.101,0.009,0.207,0.013,0.292c0.1-0.007,0.186-0.012,0.308-0.019
		c0.048-0.102,0.117-0.248,0.186-0.396c0.083-0.027,0.176,0.208,0.255-0.007c0.066,0.047,0.176,0.085,0.189,0.144
		c0.028,0.135,0.008,0.28,0.008,0.42c0.034,0.007,0.066,0.014,0.1,0.021c0.014-0.069,0.051-0.144,0.038-0.208
		c-0.05-0.249,0.03-0.399,0.252-0.401c0.796-0.007,1.591-0.012,2.387-0.002c0.133,0.002,0.266,0.078,0.375,0.112
		c0.139-0.039,0.281-0.106,0.425-0.112c0.528-0.02,1.058-0.025,1.587-0.018c0.077,0.001,0.152,0.107,0.226,0.162
		c0.061-0.327,0.373-0.161,0.584-0.171c0.59-0.027,1.183-0.011,1.774-0.012c2.01-0.004,4.02-0.009,6.028-0.014
		c0.063,0,0.125,0.007,0.221,0.013c-0.051,0.131-0.106,0.242-0.139,0.358c-0.073,0.259,0.146,0.377,0.288,0.514
		c0.14,0.136,0.32,0.231,0.473,0.401c-1.294,0-2.588,0-3.905,0c0.185-0.151,0.355-0.29,0.549-0.447
		c-0.103-0.072-0.193-0.136-0.271-0.191c-0.153,0.22-0.29,0.418-0.463,0.669c-0.667-0.011-1.42,0.07-2.159-0.069
		c-0.081,0.035-0.162,0.069-0.271,0.117c0.071-0.348,0.048-0.376-0.284-0.371c0.053,0.105,0.099,0.196,0.17,0.338
		c-0.543-0.006-1.064,0.066-1.629-0.06c0.008-0.003-0.049,0.04-0.105,0.037c-0.238-0.009-0.329-0.162-0.375-0.375
		c0.016,0.128,0.032,0.258,0.053,0.421c-0.726-0.056-1.432,0-2.134-0.028c-0.03-0.268,0.348-0.424,0.104-0.7
		c-0.071,0.088-0.134,0.167-0.213,0.265c-0.061-0.104-0.104-0.178-0.122-0.208c-0.256,0.101-0.489,0.193-0.763,0.301
		c0.24,0.152,0.589-0.052,0.678,0.331c-0.079,0.012-0.143,0.021-0.214,0.032c0.017-0.056,0.028-0.095,0.043-0.144
		c-0.044-0.004-0.075-0.016-0.095-0.006c-0.042,0.02-0.088,0.081-0.119,0.073c-0.303-0.085-0.301-0.083-0.615,0.039
		c-0.088,0.035-0.191,0.043-0.288,0.043c-1.139,0.003-2.277,0.002-3.432,0.002c-0.015-0.204-0.126-0.389,0.104-0.548
		c0.071-0.048,0.064-0.208,0.104-0.359c-0.154,0.029-0.252,0.048-0.351,0.067C14.156,4.594,14.159,4.597,14.159,4.597z
		 M20.043,5.073c0.219,0.037,0.392,0.073,0.567,0.086c0.029,0.002,0.106-0.129,0.091-0.15c-0.104-0.148-0.227-0.285-0.334-0.414
		C20.268,4.743,20.174,4.88,20.043,5.073z"/>
	<path fill-rule="evenodd" clip-rule="evenodd" fill="#E67B4B" d="M31.42,10.696c0.051,0.116,0.12,0.228,0.151,0.349
		c0.095,0.385,0.158,0.779,0.27,1.16c0.117,0.407,0.014,0.781-0.088,1.166c-0.54,2.032-1.075,4.064-1.607,6.096
		c-0.046,0.175-0.073,0.355-0.083,0.535c-0.024,0.438,0.145,0.774,0.551,0.973c0.138,0.066,0.275,0.136,0.412,0.205
		c0.256,0.131,0.324,0.35,0.287,0.615c-0.034,0.262-0.216,0.358-0.448,0.394c-0.098,0.015-0.198,0.026-0.296,0.027
		c-0.814,0.002-1.629,0.005-2.445-0.003c-0.178-0.002-0.361-0.029-0.533-0.077c-0.224-0.065-0.367-0.209-0.375-0.471
		c-0.007-0.259,0.084-0.432,0.336-0.519c0.906-0.312,1.301-1.054,1.528-1.9c0.753-2.806,1.486-5.616,2.228-8.424
		c0.009-0.033,0.021-0.066,0.029-0.1C31.364,10.713,31.393,10.705,31.42,10.696z"/>
	<path fill-rule="evenodd" clip-rule="evenodd" fill="#E67B4B" d="M22.435,7.446c0.551,0.189,1.035,0.355,1.52,0.521
		c0.264,0.09,0.525,0.192,0.792,0.27c0.415,0.121,0.598,0.034,0.786-0.348c0.148-0.302,0.323-0.417,0.588-0.371
		c0.288,0.05,0.439,0.231,0.473,0.517c0.011,0.09,0.026,0.18,0.027,0.269c0.001,1.412,0.001,2.824-0.001,4.236
		c0,0.125-0.021,0.251-0.038,0.377c-0.029,0.233-0.173,0.383-0.387,0.438c-0.217,0.055-0.462,0.044-0.591-0.162
		c-0.139-0.224-0.253-0.477-0.316-0.732c-0.265-1.086-0.671-2.098-1.441-2.933c-0.336-0.364-0.73-0.652-1.203-0.809
		c-0.17-0.058-0.218-0.148-0.211-0.316C22.443,8.115,22.435,7.827,22.435,7.446z"/>
	<path fill-rule="evenodd" clip-rule="evenodd" fill="#E67B4B" d="M42.336,20.288c0.344-1.095,0.221-2.223,0.232-3.34
		c0.016-1.397,0.004-2.796,0.048-4.204c0.077,0.235,0.156,0.472,0.233,0.708c0.175,0.538,0.328,1.084,0.529,1.613
		c0.201,0.524,0.267,1.058,0.255,1.615c-0.017,0.85-0.043,1.702,0.006,2.55c0.028,0.507,0.152,1.03,0.502,1.433
		c0.179,0.205,0.418,0.368,0.657,0.506c0.234,0.137,0.346,0.307,0.31,0.572c-0.036,0.262-0.209,0.39-0.452,0.434
		c-0.142,0.024-0.287,0.041-0.431,0.041c-0.778,0.004-1.558,0.01-2.335-0.004c-0.184-0.003-0.385-0.039-0.548-0.118
		c-0.334-0.166-0.354-0.675-0.024-0.843c0.442-0.227,0.785-0.538,1.023-0.971c0.029,0.085,0.039,0.221,0.095,0.244
		c0.066,0.027,0.187-0.019,0.259-0.069c0.079-0.053,0.145-0.14,0.187-0.228c0.035-0.072,0.029-0.164,0.041-0.248
		c-0.098-0.002-0.219-0.041-0.288,0.001C42.518,20.055,42.435,20.183,42.336,20.288z"/>
	<path fill-rule="evenodd" clip-rule="evenodd" fill="#E67B4B" d="M8.408,22.5c-0.525-0.021-1.017-0.103-1.487-0.304
		c-0.255-0.11-0.503-0.239-0.766-0.328c-0.421-0.145-0.642-0.056-0.949,0.3c-0.094,0.109-0.224,0.229-0.355,0.255
		c-0.242,0.049-0.458-0.06-0.535-0.309c-0.058-0.188-0.083-0.391-0.084-0.586c-0.007-1.177-0.004-2.354-0.003-3.531
		c0-0.136,0.007-0.272,0.019-0.406c0.037-0.415,0.212-0.619,0.534-0.631c0.35-0.013,0.609,0.226,0.712,0.582
		c0.165,0.57,0.318,1.149,0.559,1.689c0.332,0.743,0.827,1.382,1.546,1.804c0.253,0.149,0.535,0.25,0.809,0.376
		C8.408,21.753,8.408,22.111,8.408,22.5z"/>
	<path fill-rule="evenodd" clip-rule="evenodd" fill="#E67B4B" d="M9.872,7.515c0.647,0.034,1.246,0.226,1.831,0.469
		c0.191,0.079,0.387,0.15,0.576,0.234c0.245,0.107,0.417,0.018,0.558-0.183c0.073-0.103,0.136-0.216,0.223-0.305
		c0.27-0.276,0.679-0.18,0.793,0.188c0.04,0.127,0.056,0.266,0.056,0.4c0.004,1.132,0.004,2.264,0,3.396
		c0,0.144-0.026,0.287-0.048,0.43c-0.04,0.266-0.205,0.419-0.462,0.461c-0.288,0.046-0.536-0.079-0.641-0.343
		c-0.082-0.208-0.124-0.432-0.179-0.65c-0.355-1.396-1.148-2.414-2.535-2.906C9.885,8.65,9.836,8.578,9.843,8.419
		C9.856,8.147,9.849,7.875,9.85,7.604C9.85,7.586,9.858,7.569,9.872,7.515z"/>
	<path fill-rule="evenodd" clip-rule="evenodd" fill="#E67B4B" d="M22.436,22.5c0-0.358-0.01-0.69,0.01-1.021
		c0.003-0.059,0.125-0.133,0.205-0.157c1.029-0.302,1.869-0.863,2.42-1.796c0.182-0.308,0.293-0.658,0.431-0.99
		c0.091-0.219,0.171-0.442,0.45-0.489c0.389-0.065,0.671,0.184,0.676,0.609c0.005,0.564-0.228,1.06-0.521,1.517
		c-0.526,0.822-1.225,1.471-2.09,1.928C23.534,22.354,23.022,22.512,22.436,22.5z"/>
	<path fill-rule="evenodd" clip-rule="evenodd" fill="#E67B4B" d="M50.436,4.871c-0.007,0.096-0.015,0.191-0.022,0.288
		c-0.078-0.041-0.154-0.081-0.251-0.131C50.04,5.307,49.754,5.208,49.477,5.2c-0.051-0.246-0.105-0.514-0.156-0.765
		c-0.391-0.001-0.249,0.383-0.441,0.516c0.047,0.022,0.089,0.042,0.133,0.063c0,0.019,0.001,0.038,0.001,0.057
		c-0.118,0.016-0.233,0.032-0.358,0.049C48.623,4.941,48.7,4.727,48.47,4.763c-0.098,0.174-0.184,0.329-0.27,0.482
		c-0.047-0.013-0.093-0.027-0.139-0.04c0.369-0.221,0.165-0.459,0.037-0.692c0.213-0.062,0.379,0.279,0.538-0.046
		c0.052,0.073,0.074,0.145,0.118,0.163c0.06,0.023,0.136,0.005,0.205,0.005c-0.021-0.117-0.032-0.235-0.071-0.345
		c-0.007-0.017-0.144,0.019-0.221,0.022C48.646,4.313,48.623,4.285,48.6,4.27l-0.003,0.007c0.005-0.072,0.009-0.143,0.013-0.21
		c0.643,0,1.311,0,1.97,0c-0.034,0.259-0.065,0.499-0.096,0.738C50.467,4.827,50.452,4.849,50.436,4.871z M49.416,4.478
		c0.018,0.088,0.02,0.164,0.05,0.225c0.026,0.055,0.085,0.096,0.13,0.143c0.033-0.056,0.082-0.108,0.094-0.167
		c0.009-0.043-0.034-0.095-0.032-0.089c0.09-0.1,0.153-0.172,0.219-0.244c-0.016-0.014-0.029-0.028-0.043-0.042
		C49.689,4.364,49.545,4.424,49.416,4.478z"/>
	<path fill-rule="evenodd" clip-rule="evenodd" fill="#E67B4B" d="M22.262,25.501l-0.012,0.008
		c-0.011,0.101-0.021,0.202-0.039,0.368c-0.082-0.042-0.169-0.087-0.268-0.138c-0.106,0.233-0.388,0.227-0.631,0.153
		c-0.09-0.027-0.115-0.278-0.17-0.429c0.116,0.022,0.194,0.037,0.272,0.053c0.008-0.089,0.016-0.176,0.023-0.255
		c0.04-0.048,0.086-0.104,0.132-0.16c-0.072,0.005-0.146,0.002-0.215,0.016c-0.204,0.04-0.407,0.085-0.61,0.13l0.003,0.005
		c-0.03-0.062-0.061-0.122-0.116-0.233c-0.05-0.049-0.148-0.143-0.246-0.236l-0.005,0.005c0.399-0.123,0.798-0.192,1.22-0.094
		c0.146,0.033,0.316-0.038,0.477-0.059c0.22-0.028,0.31,0.099,0.257,0.318C22.291,25.132,22.285,25.318,22.262,25.501z"/>
	<path fill-rule="evenodd" clip-rule="evenodd" fill="#E67B4B" d="M20.385,24.782c-0.029,0.046-0.089,0.101-0.081,0.135
		c0.062,0.229-0.035,0.233-0.208,0.166c-0.178-0.066-0.373-0.172-0.465,0.179c-0.094-0.129-0.162-0.224-0.227-0.313
		c-0.136,0.262-0.111,0.337,0.196,0.473c-0.102,0.01-0.175,0.017-0.271,0.026c0,0.156,0,0.312,0,0.496
		c-0.137-0.015-0.278-0.029-0.421-0.045c0.058-0.091,0.113-0.176,0.168-0.263c-0.084,0.018-0.167,0.035-0.209,0.044
		c-0.044-0.091-0.092-0.19-0.14-0.292c-0.079,0.079-0.159,0.158-0.253,0.252c-0.026-0.177-0.061-0.405-0.097-0.646
		c-0.07,0.021-0.094,0.021-0.102,0.032c-0.048,0.081-0.109,0.239-0.137,0.233c-0.217-0.045,0-0.155-0.022-0.235
		c-0.031-0.111-0.07-0.221-0.105-0.333c0.467-0.106,0.752-0.068,0.828,0.043c0.151-0.036,0.273-0.084,0.397-0.089
		c0.071-0.002,0.145,0.064,0.238,0.111c0.031-0.021,0.101-0.109,0.178-0.117c0.219-0.019,0.441-0.009,0.661,0.004
		c0.024,0.002,0.043,0.094,0.065,0.144L20.385,24.782z"/>
	<path fill-rule="evenodd" clip-rule="evenodd" fill="#E67B4B" d="M50.436,4.871c0.017-0.021,0.031-0.043,0.048-0.065
		c0.377-0.147,0.326-0.431,0.193-0.758c0.559,0,1.079,0,1.6,0c0.011,0.034,0.021,0.068,0.032,0.102
		c-0.084,0.036-0.169,0.07-0.275,0.115c-0.069,0.059-0.18,0.133-0.262,0.233c-0.053,0.063-0.061,0.163-0.091,0.246
		c-0.054,0.148-0.09,0.307-0.169,0.439c-0.037,0.059-0.158,0.065-0.269,0.106c-0.033-0.025-0.099-0.072-0.169-0.125
		c0.042-0.082,0.084-0.16,0.108-0.205C50.926,4.928,50.681,4.899,50.436,4.871z M51.299,4.737c-0.057-0.206-0.104-0.373-0.151-0.541
		c-0.02,0-0.041,0-0.063,0c-0.019,0.095-0.038,0.189-0.058,0.284c-0.019-0.014-0.036-0.028-0.054-0.043
		c-0.057,0.074-0.114,0.148-0.204,0.265C50.991,4.716,51.128,4.726,51.299,4.737z"/>
	<path fill-rule="evenodd" clip-rule="evenodd" fill="#E67B4B" d="M46.956,4.571C46.896,4.643,46.833,4.714,46.76,4.8
		c-0.077-0.201-0.137-0.356-0.196-0.514c-0.034,0.015-0.057,0.018-0.063,0.03c-0.049,0.082-0.113,0.242-0.138,0.236
		c-0.211-0.049,0.019-0.168-0.024-0.236c-0.203-0.33,0.047-0.297,0.233-0.286c0.239,0.014,0.476,0.07,0.715,0.076
		c0.162,0.004,0.326-0.05,0.489-0.071c0.079-0.01,0.161-0.001,0.311-0.001c-0.08,0.18-0.143,0.323-0.229,0.517
		c-0.087-0.128-0.152-0.224-0.215-0.313c-0.156,0.274-0.143,0.314,0.185,0.479c-0.096,0.006-0.174,0.011-0.281,0.017
		c0.018,0.196,0.034,0.38,0.057,0.632c-0.175-0.065-0.321-0.12-0.479-0.179c0.078-0.095,0.14-0.17,0.203-0.246
		c-0.018-0.018-0.034-0.036-0.052-0.053c-0.075,0.034-0.151,0.068-0.154,0.069c-0.061-0.134-0.115-0.257-0.171-0.38
		c0.052-0.06,0.122-0.111,0.148-0.181c0.019-0.04-0.031-0.154-0.051-0.154c-0.091,0-0.182,0.027-0.272,0.045
		c0.04,0.069,0.076,0.139,0.119,0.206C46.909,4.522,46.936,4.545,46.956,4.571z"/>
	<path fill-rule="evenodd" clip-rule="evenodd" fill="#E67B4B" d="M20.744,25.247c-0.018,0.144-0.035,0.288-0.055,0.454
		c-0.027-0.007,0.014,0.004,0.055,0.014c0.003,0.021,0.007,0.042,0.012,0.063c-0.108,0.019-0.215,0.039-0.328,0.06
		c-0.056-0.166,0.064-0.411-0.248-0.338c-0.021,0.097-0.045,0.214-0.086,0.404c-0.072-0.272-0.126-0.478-0.191-0.723
		c0.086,0.032,0.145,0.066,0.207,0.074c0.195,0.031,0.406-0.007,0.573,0.141c0.022-0.047,0.044-0.094,0.066-0.143
		C20.747,25.252,20.744,25.247,20.744,25.247z"/>
	<path fill-rule="evenodd" clip-rule="evenodd" fill="#E67B4B" d="M48.6,4.27c-0.128,0.312-0.318-0.001-0.496,0.062
		c0.022-0.101,0.041-0.183,0.065-0.291c0.095,0.11,0.197,0.212,0.25-0.056c0.075,0.124,0.127,0.209,0.178,0.293
		C48.597,4.277,48.6,4.27,48.6,4.27z"/>
	<path fill-rule="evenodd" clip-rule="evenodd" fill="#E67B4B" d="M46.333,4.84c0.101,0.147,0.204,0.294,0.328,0.475
		C46.354,5.274,46.296,5.087,46.333,4.84z"/>
	<path fill-rule="evenodd" clip-rule="evenodd" fill="#E67B4B" d="M9.018,5.02C9.11,4.764,9.182,4.568,9.253,4.372"/>
</g>
</svg>
