<?xml version="1.0" encoding="utf-8"?>
<!-- Generator: Adobe Illustrator 16.0.0, SVG Export Plug-In . SVG Version: 6.00 Build 0)  -->
<!DOCTYPE svg PUBLIC "-//W3C//DTD SVG 1.1//EN" "http://www.w3.org/Graphics/SVG/1.1/DTD/svg11.dtd">
<svg version="1.1" id="Layer_1" xmlns="http://www.w3.org/2000/svg" xmlns:xlink="http://www.w3.org/1999/xlink" x="0px" y="0px"
	 width="60px" height="30px" viewBox="0 0 60 30" enable-background="new 0 0 60 30" xml:space="preserve">
<g>
	<path fill-rule="evenodd" clip-rule="evenodd" fill="#E67B4B" d="M43.929,26.07c0,0.293,0,0.586,0,0.879
		c-0.043,0.049-0.022,0.109-0.026,0.163c-0.069,0.94-0.653,1.513-1.396,1.979c-0.511,0.32-1.082,0.392-1.664,0.424
		c-0.032,0.002-0.065,0.001-0.091,0.025c-0.064,0-0.13,0-0.195,0c-0.049-0.036-0.098-0.036-0.146,0c-0.456,0-0.912,0-1.369,0
		c-0.401-0.055-0.805-0.013-1.207-0.023c-0.202-0.006-0.404-0.001-0.606-0.001c-0.634,0-1.268,0-1.9,0c-0.847,0-1.692,0-2.538,0
		c-0.782,0-1.564,0-2.346,0c-0.765,0-1.53,0-2.295,0c-0.604,0-1.207,0-1.811,0c-0.668,0-1.336,0-2.004,0c-0.765,0-1.529,0-2.293,0
		c-0.741,0-1.481,0-2.221,0c-0.222,0.014-0.447-0.029-0.667,0.024c-0.017,0-0.033,0-0.049,0c-0.201-0.062-0.411-0.041-0.616-0.075
		c-1.107-0.18-1.828-0.841-2.268-1.838c-0.114-0.259-0.069-0.555-0.146-0.824c0-0.049,0-0.098,0-0.146
		c0.039-0.098,0.039-0.195,0-0.293c0-0.196,0-0.392,0-0.587c0.077-0.462,0.098-0.932,0.295-1.371
		c0.204-0.455,0.433-0.896,0.728-1.296c1.347-1.827,2.693-3.654,4.043-5.479c1.48-2.003,2.95-4.011,4.436-6.009
		c0.142-0.191,0.212-0.395,0.205-0.635c-0.07-2.351-0.037-4.703-0.058-7.054c-0.004-0.485-0.047-0.975-0.185-1.448
		c-0.193-0.66-0.588-1.19-1.066-1.668c-0.091-0.092-0.213-0.176-0.073-0.32c0.933-0.024,1.866-0.005,2.798-0.01
		c0.527-0.003,1.055,0,1.582,0c1.315,0,2.629,0,3.945-0.001c0.087,0,0.179,0.023,0.263-0.023c0.766,0,1.531,0,2.297,0
		c0.079,0.151-0.042,0.226-0.125,0.307c-0.34,0.333-0.628,0.702-0.849,1.125c-0.251,0.48-0.357,0.995-0.369,1.528
		c-0.016,0.667-0.024,1.335,0.001,2.002c0.05,1.292,0.064,2.585,0.105,3.876c0.019,0.585,0.027,1.17,0.034,1.755
		c0.002,0.196,0.055,0.363,0.17,0.521c1.035,1.43,2.067,2.863,3.1,4.295c1.355,1.88,2.713,3.762,4.07,5.642
		c0.461,0.64,0.917,1.283,1.404,1.905C43.431,24.197,43.889,25.049,43.929,26.07z"/>
	<path fill-rule="evenodd" clip-rule="evenodd" fill="#E67B4B" d="M24.381,0.554c-0.033-0.031-0.066-0.063-0.1-0.094
		c1.499,0,2.998,0,4.497,0c0.033,0.017,0.033,0.032-0.001,0.048c-1.354,0-2.708,0-4.063,0.001
		C24.602,0.51,24.486,0.493,24.381,0.554z"/>
	<path fill-rule="evenodd" clip-rule="evenodd" fill="#E67B4B" d="M28.777,0.509c0-0.016,0-0.032,0.001-0.048
		c1.401,0,2.802,0,4.203,0c-0.096,0.06-0.204,0.048-0.309,0.048C31.375,0.509,30.076,0.509,28.777,0.509z"/>
	<path fill-rule="evenodd" clip-rule="evenodd" fill="#E67B4B" d="M32.784,29.494c0.847-0.001,1.694-0.001,2.542-0.002
		c0.033,0.015,0.034,0.03,0.001,0.048c-0.848,0-1.694,0-2.542,0C32.752,29.525,32.751,29.511,32.784,29.494z"/>
	<path fill-rule="evenodd" clip-rule="evenodd" fill="#E67B4B" d="M32.784,29.494c0.001,0.015,0.001,0.03,0.001,0.046
		c-0.781,0-1.563,0-2.345,0c-0.035-0.014-0.036-0.028-0.002-0.044C31.22,29.495,32.002,29.495,32.784,29.494z"/>
	<path fill-rule="evenodd" clip-rule="evenodd" fill="#E67B4B" d="M22.033,29.499c0.766,0,1.531,0,2.296,0
		c0.036,0.012,0.036,0.025,0.001,0.041c-0.766,0-1.531,0-2.297,0C21.998,29.526,21.997,29.514,22.033,29.499z"/>
	<path fill-rule="evenodd" clip-rule="evenodd" fill="#E67B4B" d="M30.438,29.496c0.001,0.015,0.001,0.028,0.002,0.044
		c-0.766,0-1.531,0-2.297,0c-0.035-0.014-0.036-0.027-0.001-0.043C28.907,29.497,29.672,29.496,30.438,29.496z"/>
	<path fill-rule="evenodd" clip-rule="evenodd" fill="#E67B4B" d="M22.033,29.499c0,0.014,0,0.026,0.001,0.041
		c-0.75,0-1.499,0-2.248,0c-0.037-0.013-0.037-0.026-0.001-0.041C20.534,29.499,21.283,29.499,22.033,29.499z"/>
	<path fill-rule="evenodd" clip-rule="evenodd" fill="#E67B4B" d="M24.331,29.54c0-0.015,0-0.028-0.001-0.041
		c0.668-0.001,1.336-0.001,2.004-0.001c0.035,0.013,0.036,0.026,0.001,0.042C25.667,29.54,24.999,29.54,24.331,29.54z"/>
	<path fill-rule="evenodd" clip-rule="evenodd" fill="#E67B4B" d="M35.327,29.54c0-0.017-0.001-0.032-0.001-0.048
		c0.636,0,1.271-0.001,1.906-0.001c0.033,0.016,0.034,0.031,0.001,0.049C36.598,29.54,35.962,29.54,35.327,29.54z"/>
	<path fill-rule="evenodd" clip-rule="evenodd" fill="#E67B4B" d="M26.334,29.54c0-0.015,0-0.028-0.001-0.042
		c0.603,0,1.205,0,1.808-0.001c0,0.015,0.001,0.028,0.001,0.043C27.54,29.54,26.938,29.54,26.334,29.54z"/>
	<path fill-rule="evenodd" clip-rule="evenodd" fill="#E67B4B" d="M37.233,29.54c0-0.017-0.001-0.033-0.001-0.049
		c0.501,0,1.002-0.001,1.503,0c0.104,0,0.211-0.012,0.306,0.049C38.438,29.54,37.836,29.54,37.233,29.54z"/>
	<path fill-rule="evenodd" clip-rule="evenodd" fill="#E67B4B" d="M19.784,29.499c0,0.014,0.001,0.027,0.001,0.041
		c-0.212,0-0.423,0-0.635,0C19.355,29.433,19.573,29.513,19.784,29.499z"/>
	<path fill-rule="evenodd" clip-rule="evenodd" fill="#E67B4B" d="M16.071,26.363c0.048,0.098,0.087,0.195,0,0.293
		C16.071,26.559,16.071,26.461,16.071,26.363z"/>
	<path fill-rule="evenodd" clip-rule="evenodd" fill="#E67B4B" d="M40.41,29.54c0.049-0.055,0.098-0.072,0.146,0
		C40.508,29.54,40.459,29.54,40.41,29.54z"/>
</g>
</svg>
